<?xml version="1.0" standalone="no"?>
<!DOCTYPE svg PUBLIC "-//W3C//DTD SVG 20010904//EN"
 "http://www.w3.org/TR/2001/REC-SVG-20010904/DTD/svg10.dtd">
<svg version="1.0" xmlns="http://www.w3.org/2000/svg"
 width="700.000000pt" height="394.000000pt" viewBox="0 0 700.000000 394.000000"
 preserveAspectRatio="xMidYMid meet">

<g transform="translate(0.000000,394.000000) scale(0.100000,-0.100000)"
fill="#000000" stroke="none">
<path d="M0 3295 l0 -645 43 -21 c23 -12 96 -46 162 -76 66 -29 146 -70 178
-89 32 -20 61 -33 64 -30 4 3 0 6 -7 6 -7 0 -11 3 -8 6 10 10 49 -16 42 -28
-4 -7 -3 -8 4 -4 22 13 180 -85 181 -113 1 -8 -5 -11 -15 -7 -8 3 1 -10 22
-29 20 -19 40 -32 44 -30 5 3 7 -5 6 -18 -2 -14 2 -24 10 -24 7 0 11 9 8 20
-2 11 0 16 4 13 4 -4 7 -11 7 -14 2 -24 18 -51 33 -55 16 -4 16 -5 -1 -6 -9 0
-87 40 -172 90 -85 49 -159 87 -165 84 -5 -3 -10 -2 -10 2 0 5 -9 14 -21 21
-14 9 -19 10 -14 2 4 -7 -11 -2 -33 11 -22 13 -38 28 -35 33 4 5 1 6 -5 2 -13
-8 -143 41 -154 58 -4 5 -4 14 -1 20 3 5 1 6 -6 2 -6 -4 -9 -12 -5 -18 3 -5
-7 -3 -24 6 -31 16 -111 46 -124 46 -5 0 -8 -62 -8 -139 l0 -138 117 -37 c105
-34 171 -66 135 -66 -7 0 -12 4 -12 8 0 9 -143 55 -208 67 l-32 7 0 -340 0
-339 83 -6 c45 -4 100 -7 122 -7 28 0 59 -12 100 -36 33 -20 51 -33 41 -30
-15 5 -17 4 -7 -8 6 -8 20 -12 30 -9 9 2 23 -3 30 -11 9 -11 10 -16 2 -16 -6
0 -11 5 -11 10 0 6 -7 10 -16 10 -8 0 -12 -5 -8 -11 4 -8 0 -9 -15 -4 -21 6
-30 -9 -11 -18 6 -3 5 -4 -2 -3 -7 2 -12 13 -11 25 3 19 0 20 -17 11 -11 -6
-18 -15 -15 -20 6 -10 -71 -90 -87 -90 -16 0 -8 -19 18 -39 15 -12 23 -21 17
-21 -5 0 -24 13 -43 30 -19 16 -42 29 -50 30 -13 0 -13 1 0 10 8 5 12 10 8 10
-4 0 -1 17 6 38 27 76 27 89 6 95 -12 3 -18 11 -15 19 4 10 -11 12 -75 10
l-80 -4 0 -749 0 -749 136 0 136 0 -35 64 c-41 75 -91 217 -106 302 -13 73
-12 336 1 328 5 -3 7 -12 5 -18 -3 -7 1 -13 8 -13 11 0 11 6 -1 29 l-15 29 68
-7 c79 -8 162 -34 191 -60 11 -11 38 -32 61 -48 22 -16 38 -33 35 -38 -3 -5
-2 -7 3 -6 13 5 93 -64 87 -74 -3 -5 -2 -8 3 -7 20 4 27 -2 13 -12 -13 -9 -12
-10 2 -5 25 8 134 -86 122 -105 -2 -4 4 -6 13 -5 9 0 18 -6 20 -14 4 -13 3
-13 -7 0 -10 13 -11 13 -7 0 2 -8 11 -15 20 -15 9 0 31 -16 48 -35 82 -89 212
-246 222 -267 l10 -23 646 0 646 0 63 123 c34 67 62 127 62 134 0 8 11 10 35
6 24 -4 46 1 75 16 22 11 50 21 61 21 11 0 17 4 14 10 -3 5 0 7 9 4 13 -5 76
12 242 65 79 25 206 89 419 211 94 54 264 144 376 200 210 104 261 138 326
221 21 26 44 46 51 44 7 -3 11 -1 8 4 -5 8 37 54 45 49 2 -2 3 -1 1 1 -5 9 81
90 90 85 8 -5 30 16 101 100 107 124 130 142 61 46 -18 -25 -47 -66 -66 -92
-149 -206 -308 -354 -463 -432 -116 -58 -201 -96 -214 -96 -5 0 -13 -4 -16
-10 -7 -11 38 5 155 54 98 42 123 55 205 107 33 21 71 40 85 43 126 29 183 37
193 27 14 -14 14 -199 -1 -316 -7 -55 -31 -209 -53 -343 -22 -134 -39 -253
-37 -265 2 -12 18 66 36 173 57 332 76 430 84 430 4 0 8 -4 8 -9 0 -21 132
-92 230 -122 91 -29 117 -33 195 -31 194 5 303 57 409 196 56 74 63 97 12 41
l-46 -50 37 70 c20 39 45 87 55 107 11 20 30 68 43 105 l24 68 2 -75 c2 -41 2
-172 2 -290 l-1 -215 -37 -128 c-20 -70 -34 -136 -32 -145 3 -11 5 -9 7 8 2
29 38 131 39 112 1 -7 -9 -46 -21 -87 -15 -50 -25 -71 -31 -62 -5 7 -6 -1 -3
-23 4 -22 3 -30 -3 -21 -7 11 -10 9 -15 -8 -19 -68 -41 -61 193 -61 l211 0 1
23 c4 91 8 123 28 211 35 156 50 174 136 161 46 -6 85 -35 48 -35 -40 0 -83
-21 -83 -41 0 -10 7 -19 15 -19 24 0 115 53 115 66 0 7 -38 40 -84 75 -63 47
-82 67 -78 81 3 12 8 15 16 10 6 -5 37 -28 68 -50 33 -24 58 -51 60 -63 2 -18
16 -32 46 -45 6 -3 -46 -51 -62 -57 -23 -9 -20 -38 9 -69 24 -26 25 -34 25
-138 l0 -110 34 0 33 0 1 154 c1 136 4 158 22 195 13 23 19 48 15 60 -10 34
28 126 189 451 85 173 158 329 161 345 4 25 2 23 -14 -12 -15 -32 -37 -54 -90
-89 -71 -47 -71 -47 -92 -28 -22 19 -22 19 -8 -3 16 -26 14 -26 58 -13 19 5
36 8 38 7 1 -2 -8 -37 -20 -78 -29 -93 -272 -576 -280 -555 -3 8 -26 24 -51
35 -25 11 -70 37 -98 58 l-53 38 8 45 c9 46 -7 116 -21 94 -5 -8 -31 -6 -87 7
-139 32 -157 39 -153 57 3 17 8 18 168 41 36 5 77 14 92 19 38 15 134 32 209
36 132 7 196 50 104 70 -22 4 -76 19 -120 32 -84 26 -231 54 -277 54 -36 0
-36 -19 1 -54 34 -33 67 -30 58 5 -5 17 -2 20 16 17 12 -3 66 -13 119 -24 95
-18 116 -29 81 -40 -10 -3 -46 -18 -81 -35 -72 -33 -78 -34 -98 -14 -14 14
-51 18 -162 20 -26 0 -32 4 -32 23 0 12 5 22 10 22 6 0 8 10 5 23 -3 12 1 44
8 71 l13 49 79 19 c67 16 203 74 228 98 4 4 -15 10 -44 13 -55 7 -83 23 -75
43 4 11 -32 51 -106 116 -21 18 -28 35 -33 84 -6 57 -5 62 18 77 24 15 27 15
78 -24 29 -21 55 -39 58 -39 3 0 -6 10 -21 21 -75 56 -73 52 -31 74 21 11 51
30 66 42 16 13 34 23 42 23 18 0 33 -44 41 -125 4 -38 9 -64 11 -57 3 7 0 49
-6 93 -13 96 0 133 48 144 17 3 41 15 54 25 13 10 58 32 99 49 l76 30 41 -19
c53 -26 65 -25 22 1 -32 20 -34 22 -16 32 11 6 45 19 75 28 30 10 48 18 39 18
-11 1 -314 -95 -314 -99 0 0 0 39 0 88 0 72 -5 99 -28 157 -34 83 -62 122
-111 156 -20 13 -36 26 -36 29 0 5 6 8 93 52 26 14 73 44 105 67 31 23 82 58
112 76 30 19 49 35 43 35 -7 0 -56 -30 -109 -66 -54 -36 -129 -81 -168 -100
-39 -20 -78 -41 -86 -47 -50 -40 -144 -67 -174 -50 -12 7 3 26 72 95 48 48
115 109 149 135 33 26 59 50 57 52 -1 2 -21 -11 -44 -29 -23 -18 -43 -30 -46
-28 -2 3 0 36 5 74 6 37 9 70 7 72 -2 1 -23 -45 -46 -103 -23 -58 -45 -103
-48 -100 -3 3 -18 -17 -33 -43 -15 -26 -34 -54 -43 -61 -14 -12 -16 -9 -18 20
-6 107 -3 129 15 135 9 3 14 10 11 16 -4 6 -9 5 -15 -3 -6 -10 -8 -8 -7 7 2
18 5 19 24 10 12 -7 33 -25 47 -41 29 -33 27 -35 32 40 1 16 7 31 14 33 13 4
15 22 3 22 -13 0 -55 -61 -47 -68 3 -4 10 0 15 8 8 13 10 12 10 -2 0 -27 -17
-30 -34 -6 -12 17 -13 25 -3 37 10 12 9 14 -8 7 -16 -6 -17 -5 -8 5 10 10 15
9 28 -1 12 -10 15 -10 15 3 0 9 -6 17 -14 19 -8 2 1 10 20 20 19 10 34 13 34
8 0 -5 -9 -12 -21 -15 -27 -9 -19 -16 9 -8 14 3 22 12 20 22 -1 9 1 22 6 29
15 24 0 22 -35 -4 -19 -14 -62 -41 -96 -61 -34 -20 -60 -40 -57 -45 3 -4 -3
-5 -12 -1 -10 4 -15 2 -11 -4 11 -18 -148 4 -232 32 -25 8 -46 13 -48 11 -3
-2 12 -9 32 -16 30 -10 35 -15 29 -33 -15 -49 -23 -63 -53 -91 -25 -25 -29
-32 -18 -45 11 -14 10 -14 -5 -2 -14 11 -21 11 -33 1 -8 -7 -12 -16 -10 -21 3
-4 -11 -2 -32 5 -24 8 -39 20 -41 32 -4 29 -54 165 -58 161 -2 -2 7 -39 22
-81 14 -43 24 -80 21 -82 -2 -2 -11 -2 -20 2 -18 6 -47 76 -76 184 -11 37 -24
77 -30 88 -6 11 -11 23 -11 26 0 5 67 -29 153 -78 62 -36 61 -28 -2 12 -58 36
-96 84 -157 204 -25 47 -72 118 -105 157 -39 47 -59 80 -60 98 -1 23 -3 21
-11 -12 -5 -22 -8 -72 -5 -112 2 -40 1 -71 -2 -68 -4 2 -5 -12 -3 -31 4 -32
-10 -47 -21 -24 -3 6 -4 5 -3 -2 1 -7 10 -14 19 -16 13 -3 17 4 18 30 l0 33
15 -37 c10 -22 26 -41 42 -47 31 -11 50 -27 72 -56 14 -19 14 -19 -5 -3 -29
24 -83 44 -170 63 -109 25 -224 17 -337 -22 -49 -17 -88 -29 -88 -27 0 10 78
54 104 58 16 3 31 8 35 12 3 4 -1 5 -10 1 -11 -3 -30 8 -54 33 -22 22 -60 47
-87 57 -47 17 -84 43 -60 43 6 0 1 10 -11 23 -43 46 -58 68 -51 79 5 8 -12 9
-59 5 -41 -4 -67 -2 -67 3 0 6 6 10 13 10 8 0 22 9 33 21 18 20 18 21 1 34
-12 8 -14 15 -8 20 6 3 11 2 11 -3 0 -6 7 -12 15 -16 12 -4 14 0 10 19 -3 14
-7 37 -10 51 -4 16 -2 23 5 19 5 -3 10 -19 10 -35 0 -16 4 -31 9 -35 10 -6 37
34 33 49 -2 4 6 22 16 40 25 44 33 66 22 66 -5 0 -13 -12 -16 -26 -4 -15 -10
-22 -15 -17 -13 13 18 83 36 83 8 0 15 6 15 13 0 8 4 7 11 -3 8 -11 9 -8 4 14
-6 27 -5 28 11 15 16 -13 17 -12 12 13 -4 20 0 28 13 31 10 3 23 -1 30 -9 6
-8 26 -14 44 -14 19 0 35 -6 37 -12 3 -7 8 7 12 32 12 78 79 303 97 323 6 8
-21 -96 -51 -198 -9 -28 -8 -28 5 -11 30 40 36 -18 11 -109 -20 -69 -40 -162
-56 -256 -12 -70 -10 -189 3 -189 5 0 5 19 2 43 -12 80 43 362 69 354 6 -2 13
-37 16 -78 5 -68 6 -64 12 61 7 144 10 176 21 186 4 4 7 20 7 36 0 15 4 28 9
28 13 0 17 -9 25 -50 6 -28 5 -32 -4 -20 -10 13 -11 12 -6 -3 3 -10 6 -42 6
-69 0 -73 11 -52 26 48 7 47 15 88 18 91 13 13 26 -13 27 -55 1 -26 5 -58 10
-72 6 -18 7 -6 5 40 -3 46 -2 59 5 45 8 -17 9 -16 4 7 -3 14 -2 28 3 31 4 2 1
2 -5 1 -16 -4 -17 8 -2 23 6 6 15 29 20 50 28 131 35 154 43 146 5 -4 6 1 2
12 -3 11 -1 27 4 35 15 21 6 -49 -15 -125 -9 -33 -19 -73 -21 -90 -5 -44 -4
-308 1 -314 3 -2 5 43 5 102 0 118 15 206 36 214 8 3 14 13 14 22 1 9 7 27 16
41 15 25 15 25 9 -10 -2 -19 -2 -28 2 -20 3 8 12 19 19 23 8 4 14 15 14 22 0
8 7 15 15 15 7 0 18 8 23 17 18 32 51 -20 59 -92 6 -51 13 -59 13 -14 1 33 1
33 14 11 l13 -24 0 29 c0 15 6 82 12 148 6 66 11 129 12 140 1 13 4 10 9 -10
5 -21 7 -10 6 37 -1 67 -1 68 -28 68 -26 0 -28 -3 -28 -41 0 -24 -4 -38 -10
-34 -5 3 -10 22 -10 41 0 53 -26 41 -48 -21 l-10 -30 -7 42 -7 41 -42 -47
c-23 -26 -62 -75 -86 -109 -24 -34 -45 -61 -47 -58 -12 11 46 126 83 166 33
35 39 46 25 45 -24 -2 -111 -76 -104 -89 3 -5 1 -6 -4 -3 -6 4 -28 -9 -49 -28
-21 -19 -40 -35 -42 -35 -7 0 34 63 55 84 25 23 30 38 11 31 -7 -3 -58 1 -113
9 -55 7 -103 12 -106 10 -4 -2 -10 -25 -13 -51 -18 -129 -70 -392 -77 -387 -4
2 -10 -5 -14 -16 -4 -11 -10 -18 -15 -15 -5 3 -1 21 9 39 21 36 46 144 37 154
-10 10 -44 -30 -70 -83 -16 -31 -25 -42 -25 -30 -1 38 19 93 59 156 31 48 34
56 13 32 -43 -48 -79 -113 -91 -164 -7 -26 -14 -54 -18 -63 -3 -9 -1 -16 5
-16 6 0 11 8 11 17 0 9 3 14 6 10 3 -3 -2 -30 -12 -59 -10 -29 -17 -57 -16
-61 1 -5 -2 -6 -7 -2 -6 3 -5 20 4 45 8 22 10 40 6 40 -5 0 -11 -13 -14 -29
-4 -16 -15 -49 -26 -73 -25 -55 -54 -158 -47 -166 3 -3 6 2 6 11 0 9 4 18 9
21 4 3 6 -6 3 -20 -2 -14 -11 -28 -18 -31 -8 -3 -14 -14 -14 -24 0 -24 -26
-101 -57 -166 -22 -48 -28 -54 -64 -59 -22 -4 -42 -11 -45 -15 -3 -5 -27 -9
-54 -9 -27 0 -51 -4 -54 -8 -3 -5 -20 -7 -38 -5 -27 3 -29 1 -13 -6 16 -8 11
-10 -26 -10 -51 -1 -74 -19 -119 -95 -57 -97 -94 -147 -114 -151 -12 -3 -64
-7 -116 -10 -52 -4 -106 -7 -120 -9 -14 -1 -30 2 -37 7 -7 5 -25 2 -45 -9 -29
-15 -31 -18 -13 -24 18 -6 -79 -21 -129 -19 -25 1 9 17 127 60 42 15 96 39
120 53 44 27 46 34 2 14 -32 -14 -37 -9 -42 44 -3 24 -8 47 -13 53 -23 27 -32
168 -33 485 -1 350 4 430 29 430 9 0 14 12 15 38 1 40 2 45 11 82 4 14 9 46
12 73 l6 47 -1655 0 -1655 0 0 -645z m4610 560 c0 -12 -52 -86 -57 -82 -3 3
-2 24 2 46 6 35 10 41 31 41 13 0 24 -2 24 -5z m-23 -337 c-3 -8 -6 -5 -6 6
-1 11 2 17 5 13 3 -3 4 -12 1 -19z m-96 -61 c-10 -9 -11 -8 -5 6 3 10 9 15 12
12 3 -3 0 -11 -7 -18z m-164 -139 c-3 -8 -6 -5 -6 6 -1 11 2 17 5 13 3 -3 4
-12 1 -19z m-180 -205 c-3 -10 -5 -4 -5 12 0 17 2 24 5 18 2 -7 2 -21 0 -30z
m33 -8 c-7 -8 -10 -21 -7 -28 3 -7 -1 -21 -9 -32 -13 -18 -14 -18 -14 4 0 26
29 86 37 77 3 -3 0 -12 -7 -21z m-3483 1 c12 -20 72 -48 89 -42 8 3 13 2 10
-3 -3 -4 10 -16 29 -27 18 -10 31 -22 28 -27 -3 -5 0 -7 8 -5 23 8 167 -89
288 -194 24 -21 47 -35 52 -33 4 3 11 0 15 -6 5 -8 2 -10 -7 -5 -8 4 2 -7 21
-24 111 -102 181 -175 258 -269 47 -58 96 -117 109 -130 13 -13 23 -28 23 -33
0 -6 -75 66 -168 159 -206 209 -332 319 -429 377 -80 49 -213 99 -236 91 -8
-4 -34 18 -68 57 -85 98 -83 96 -69 113 16 19 36 19 47 1z m-157 -58 c0 -11 4
-16 11 -12 8 4 9 -1 4 -16 -6 -18 -4 -22 8 -17 10 4 13 0 11 -11 -3 -9 14 -41
36 -70 40 -52 51 -80 28 -66 -8 4 -10 3 -5 -2 5 -5 14 -9 20 -9 5 0 17 -12 26
-26 9 -15 31 -48 49 -73 17 -26 32 -51 32 -56 0 -4 3 -10 8 -12 4 -2 18 -16
32 -33 42 -49 -64 38 -133 109 -61 63 -99 116 -62 86 17 -14 18 -14 6 8 -6 12
-16 22 -20 22 -14 0 -90 154 -88 177 0 12 5 19 10 16 4 -3 6 -12 2 -22 -5 -13
-4 -14 7 -3 10 10 10 17 -1 35 -13 20 -13 21 2 8 10 -7 17 -22 17 -33z m3580
6 c0 -8 -5 -12 -10 -9 -6 4 -8 11 -5 16 9 14 15 11 15 -7z m-3401 -163 c57
-64 119 -129 139 -146 19 -16 51 -46 71 -65 21 -19 57 -51 80 -70 24 -19 50
-41 57 -48 8 -7 18 -11 24 -7 6 4 7 -1 3 -11 -5 -13 -3 -16 10 -11 12 4 14 2
10 -11 -6 -15 -5 -15 10 -3 15 12 17 12 11 -3 -8 -22 24 -58 46 -51 16 5 58
-30 53 -44 -2 -3 1 -6 6 -6 5 0 45 -34 89 -76 44 -42 87 -81 97 -86 13 -8 4
-13 -42 -22 l-59 -13 -59 54 c-176 159 -550 548 -546 567 1 7 -2 10 -8 6 -6
-3 -11 1 -11 9 0 9 -3 16 -7 16 -5 0 -19 17 -33 38 -14 20 -27 39 -31 42 -3 3
-8 13 -12 23 -4 11 -12 15 -18 11 -8 -4 -9 -3 -5 4 4 6 0 26 -9 44 l-15 33 22
-29 c13 -17 70 -82 127 -145z m121 -16 c7 -9 8 -15 2 -15 -5 0 -12 7 -16 15
-3 8 -4 15 -2 15 2 0 9 -7 16 -15z m464 -175 c16 -14 39 -35 52 -47 13 -12 24
-20 24 -18 0 2 35 -33 78 -79 43 -46 79 -91 79 -100 0 -14 -4 -13 -23 5 -13
12 -21 25 -19 29 2 4 -57 67 -133 141 -124 121 -140 139 -58 69z m3584 -90
c17 -11 32 -28 32 -37 2 -70 24 -174 49 -226 16 -34 32 -70 35 -80 3 -10 10
-15 16 -12 26 16 -2 -104 -33 -145 l-20 -25 7 30 c6 28 5 29 -9 11 -19 -25
-19 -21 1 36 15 45 15 47 -15 105 -18 36 -39 64 -55 71 -14 6 -33 23 -42 37
-17 26 -17 29 0 59 19 36 16 80 -10 149 -8 20 -14 40 -14 42 0 11 27 4 58 -15z
m-1350 -7 c-16 -2 -40 -2 -55 0 -16 2 -3 4 27 4 30 0 43 -2 28 -4z m-115 -10
c-13 -2 -35 -2 -50 0 -16 2 -5 4 22 4 28 0 40 -2 28 -4z m-135 -10 c-10 -2
-26 -2 -35 0 -10 3 -2 5 17 5 19 0 27 -2 18 -5z m-1750 -38 c17 0 61 -39 55
-48 -3 -6 -1 -7 5 -3 6 3 41 -13 79 -38 75 -48 185 -105 223 -116 21 -6 16 -8
-28 -14 -41 -6 -58 -4 -77 8 -33 22 -42 20 -20 -4 26 -29 2 -26 -54 6 -39 23
-147 124 -132 124 3 0 -4 7 -15 15 -10 8 -15 15 -11 15 4 0 -6 15 -22 33 -17
17 -31 37 -31 42 0 6 5 3 10 -5 5 -8 13 -15 18 -15z m-372 -49 c20 -21 17 -28
-6 -14 -11 7 -20 16 -20 20 0 12 10 9 26 -6z m-645 -53 c13 -16 12 -17 -3 -4
-10 7 -18 15 -18 17 0 8 8 3 21 -13z m169 -70 c0 -8 -9 0 -50 45 l-45 47 48
-45 c26 -24 47 -45 47 -47z m11 30 c13 -16 12 -17 -3 -4 -10 7 -18 15 -18 17
0 8 8 3 21 -13z m4639 -52 c-5 -11 -15 -23 -21 -27 -6 -3 -3 5 6 20 20 30 30
35 15 7z m-4670 -17 c0 -2 -9 0 -20 6 -11 6 -20 13 -20 16 0 2 9 0 20 -6 11
-6 20 -13 20 -16z m103 -17 c7 3 9 3 5 -2 -4 -4 -2 -15 5 -24 6 -9 -7 -1 -30
17 -24 19 -46 39 -50 45 -4 7 8 0 26 -16 18 -15 38 -24 44 -20z m4806 -51 c14
-98 8 -108 -63 -105 -77 4 -76 3 -53 73 18 55 24 65 54 75 19 7 37 19 40 27 8
22 10 16 22 -70z m-124 -8 c-4 -18 -14 -46 -22 -61 -13 -27 -17 -28 -56 -22
-23 4 -39 4 -36 1 4 -4 57 -13 118 -20 62 -8 119 -20 127 -27 16 -13 134 -167
134 -175 0 -18 -41 6 -95 56 -35 33 -70 60 -77 60 -6 0 -26 12 -42 28 l-31 27
27 -30 c15 -16 45 -73 68 -125 23 -52 50 -111 61 -131 24 -45 24 -49 0 -49
-23 0 -45 25 -35 41 4 8 3 9 -4 5 -7 -4 -12 -16 -12 -27 0 -26 -31 -25 -61 4
-14 12 -46 59 -72 105 -45 78 -107 138 -115 112 -2 -5 22 -57 53 -115 47 -89
53 -105 38 -105 -21 0 -71 49 -128 125 -64 86 -81 103 -133 135 -50 31 -77 74
-66 105 11 27 100 31 204 10 17 -4 14 -1 -7 7 -58 23 -45 37 72 76 88 30 98
29 90 -10z m375 -144 c16 -18 -1 -18 -26 1 -21 16 -38 20 -30 7 3 -5 -23 -18
-57 -31 l-62 -22 -18 22 c-17 22 -17 23 0 33 10 5 41 10 69 10 37 1 49 4 43
12 -5 6 -6 13 -3 17 7 6 67 -28 84 -49z m-751 -27 c5 -27 5 -47 0 -47 -5 0 -9
-15 -10 -32 0 -32 0 -32 -10 -8 -9 23 -3 147 7 137 2 -2 8 -25 13 -50z m158
-94 c19 -24 20 -29 7 -36 -35 -20 -104 22 -104 64 0 23 74 1 97 -28z m-1102
-74 c20 -37 9 -58 -49 -98 -41 -29 -135 -71 -156 -71 -21 0 -7 23 53 86 34 37
74 80 89 96 31 33 41 30 63 -13z m-1705 -77 c102 -6 257 -19 345 -29 126 -14
224 -17 458 -15 237 2 298 0 295 -10 -11 -32 -69 -37 -371 -33 -344 6 -526 17
-721 46 -107 15 -166 19 -260 14 -230 -11 -579 -66 -681 -107 -27 -12 -70 -24
-95 -28 -25 -4 -37 -8 -27 -9 10 0 15 -6 12 -11 -4 -6 -10 -8 -15 -5 -4 3 -10
2 -12 -3 -1 -4 -42 -36 -89 -71 l-86 -63 56 -57 c31 -31 45 -47 31 -35 -14 11
-43 33 -64 49 l-39 28 -54 -29 c-30 -16 -87 -53 -126 -82 -72 -55 -174 -124
-207 -142 -22 -12 -66 4 -74 27 -4 9 38 42 130 101 363 233 474 312 474 334 0
24 18 32 35 14 17 -17 26 -15 99 25 41 23 51 33 51 55 0 25 2 26 75 30 41 2
120 8 175 13 119 10 428 7 685 -7z m-117 -91 c42 -27 98 -54 125 -61 26 -7 52
-17 57 -21 18 -14 220 -39 311 -39 73 0 105 6 179 30 50 17 105 36 123 41 19
6 32 13 29 15 -3 3 -45 -7 -93 -21 -154 -45 -302 -44 -494 3 -74 18 -256 97
-200 87 19 -4 58 -10 85 -15 28 -5 84 -18 125 -30 41 -12 100 -22 132 -23 31
-1 54 -6 51 -11 -8 -12 240 0 287 14 19 5 77 10 129 10 l94 0 -44 -24 c-24
-13 -67 -39 -96 -59 -29 -19 -67 -40 -85 -45 -193 -57 -191 -57 -318 -57 -218
1 -349 49 -478 175 -79 77 -81 80 -35 80 29 0 58 -12 116 -49z m57 -11 c8 -5
10 -10 4 -10 -7 0 -22 9 -35 21 -19 16 -20 18 -4 10 11 -6 27 -15 35 -21z
m280 10 c-8 -5 -19 -10 -25 -10 -5 0 -3 5 5 10 8 5 20 10 25 10 6 0 3 -5 -5
-10z m67 4 c-3 -3 -12 -4 -19 -1 -8 3 -5 6 6 6 11 1 17 -2 13 -5z m-880 -28
c0 -8 -6 -12 -15 -9 -11 5 -11 7 0 14 7 5 13 9 14 9 0 0 1 -6 1 -14z m124 -18
c33 -18 59 -36 59 -40 0 -5 5 -8 10 -8 11 0 124 -75 154 -102 11 -10 16 -18
10 -18 -5 0 -2 -4 6 -10 8 -5 11 -12 7 -16 -3 -4 -15 -1 -24 7 -15 11 -15 10
1 -9 14 -16 22 -19 27 -10 6 9 11 9 23 -1 9 -8 16 -10 16 -6 0 5 3 6 6 3 3 -4
0 -17 -7 -30 -11 -21 -11 -22 4 -10 12 10 21 11 34 3 11 -6 13 -11 5 -11 -7 0
-10 -5 -7 -10 4 -6 10 -8 15 -5 10 6 76 -66 85 -94 3 -12 11 -18 17 -15 7 4 8
2 4 -5 -6 -9 -11 -9 -22 0 -17 14 -17 9 -3 -28 8 -21 7 -25 -1 -17 -6 6 -13
28 -14 48 -2 20 -7 40 -11 44 -5 4 -5 -1 -2 -10 3 -10 2 -20 -3 -23 -4 -3 -7
7 -5 21 4 36 -23 68 -44 51 -9 -6 -13 -7 -8 -2 10 11 -22 45 -37 39 -12 -5
-46 20 -125 91 -44 40 -98 74 -86 55 5 -8 17 -21 28 -29 11 -8 16 -19 12 -29
-3 -9 -3 -13 1 -10 9 10 47 -40 39 -52 -3 -5 0 -7 7 -5 16 7 52 -50 44 -70 -3
-8 3 -39 13 -68 11 -30 21 -70 24 -88 2 -19 12 -49 21 -66 9 -18 13 -40 9 -49
-4 -10 -2 -15 3 -11 14 8 7 -69 -9 -102 -14 -30 -66 -41 -89 -18 -15 15 -186
127 -194 127 -3 0 -10 5 -17 10 -53 45 -102 78 -109 74 -5 -3 -8 -2 -7 3 6 24
-34 78 -50 69 -5 -3 -7 4 -5 16 2 13 1 17 -2 9 -4 -7 -9 -9 -13 -4 -3 5 -36
30 -73 56 -36 26 -68 50 -70 55 -1 4 -34 32 -73 61 -38 29 -69 57 -67 62 1 5
-2 9 -8 9 -5 0 -14 10 -21 21 -12 24 -1 20 34 -9 9 -8 20 -12 24 -9 3 4 1 7
-6 7 -7 0 -9 5 -5 13 4 6 4 9 0 6 -4 -4 -24 11 -45 33 -33 36 -40 39 -60 29
-22 -12 -22 -12 16 -53 81 -89 119 -126 154 -152 21 -15 81 -70 135 -122 55
-52 112 -102 129 -111 30 -16 61 -43 50 -43 -4 0 1 -7 10 -16 13 -14 18 -14
33 -2 15 11 15 11 5 -2 -13 -17 -6 -34 17 -43 13 -5 13 -5 0 -6 -29 -1 -290
203 -431 337 -42 39 -81 72 -86 72 -15 0 -44 36 -36 44 5 4 2 6 -5 4 -6 -1
-21 11 -32 28 l-21 32 38 29 c58 45 61 46 75 19 15 -27 165 -185 218 -230 19
-16 34 -33 32 -38 -1 -5 2 -7 8 -3 6 4 33 -14 60 -38 28 -25 67 -54 87 -65 21
-11 37 -25 35 -32 -1 -6 2 -9 8 -5 5 3 51 -21 101 -54 50 -34 99 -61 110 -61
11 0 27 13 38 30 10 16 21 27 26 22 17 -17 -21 163 -46 213 -5 11 -11 34 -12
52 -1 17 -5 29 -9 27 -3 -2 -9 9 -13 26 -4 16 -18 39 -32 49 -15 12 -22 25
-17 32 5 9 2 10 -9 6 -12 -4 -14 -2 -10 10 5 12 3 14 -7 8 -10 -6 -12 -4 -7 8
3 9 3 16 -1 15 -4 -2 -19 9 -33 22 -14 14 -40 36 -57 49 -17 14 -29 28 -26 32
2 4 -2 10 -8 12 -7 3 -2 6 11 6 13 1 50 -14 82 -31z m789 28 c0 -2 -9 -6 -20
-9 -11 -3 -18 -1 -14 4 5 9 34 13 34 5z m243 -13 c-7 -2 -19 -2 -25 0 -7 3 -2
5 12 5 14 0 19 -2 13 -5z m-116 -9 c-3 -3 -12 -4 -19 -1 -8 3 -5 6 6 6 11 1
17 -2 13 -5z m-4 -71 c-7 -2 -19 -2 -25 0 -7 3 -2 5 12 5 14 0 19 -2 13 -5z
m2679 -185 c4 -44 0 -47 -25 -12 -20 27 -17 51 6 51 10 0 16 -13 19 -39z
m-241 -46 c-17 -33 -35 -63 -41 -67 -5 -3 7 25 28 64 45 84 55 87 13 3z m-161
-39 c0 -7 -5 -13 -11 -13 -6 0 -9 7 -5 15 3 9 0 15 -9 15 -21 0 -28 19 -14 37
12 14 15 12 26 -13 7 -16 12 -35 13 -41z m-4706 31 c24 -9 20 -20 -19 -50 -40
-30 -51 -28 -33 7 28 53 28 52 52 43z m1782 -45 c14 -22 23 -43 20 -46 -2 -3
-14 14 -26 38 -17 32 -24 39 -31 28 -5 -8 -9 -9 -9 -3 0 10 9 24 17 24 1 0 14
-18 29 -41z m2878 26 c17 -13 17 -15 -9 -49 -31 -40 -31 -41 -41 -24 -4 6 -3
8 3 5 17 -11 25 37 8 49 -11 8 -12 13 -3 22 15 15 19 15 42 -3z m-42 -47 c-7
-7 -12 -8 -12 -2 0 14 12 26 19 19 2 -3 -1 -11 -7 -17z m-3677 -8 c10 -11 16
-20 13 -20 -3 0 -13 9 -23 20 -10 11 -16 20 -13 20 3 0 13 -9 23 -20z m3736 1
c-8 -5 -10 -14 -6 -21 5 -9 4 -11 -3 -6 -7 4 -12 2 -12 -5 0 -7 -3 -9 -6 -6
-4 4 1 18 10 33 10 14 20 23 24 19 4 -3 0 -10 -7 -14z m-2667 -87 c30 -60 36
-125 10 -104 -13 12 -14 10 -3 -14 10 -22 10 -32 1 -47 -7 -11 -10 -25 -6 -31
4 -6 3 -8 -4 -4 -6 3 -13 2 -17 -4 -4 -6 -11 -7 -17 -4 -7 5 -9 2 -6 -7 4 -10
-3 -14 -23 -15 -41 -2 -40 35 2 59 30 17 31 20 26 67 -7 55 -6 57 17 34 15
-14 16 -13 16 15 0 17 -4 31 -10 31 -5 0 -6 7 -3 17 4 10 2 14 -4 10 -7 -5 -9
1 -5 15 3 14 1 19 -6 14 -7 -4 -10 1 -9 14 2 26 10 17 41 -46z m-2188 44 c-10
-6 -22 -6 -26 -2 -5 5 3 10 18 11 22 1 24 0 8 -9z m73 -4 c-10 -12 -14 -12
-21 -2 -6 9 -7 6 -3 -9 7 -26 -29 -53 -48 -34 -8 8 -8 11 2 11 7 0 9 5 5 12
-5 8 -2 9 10 5 11 -4 15 -3 10 4 -8 13 7 24 36 26 18 2 19 -1 9 -13z m383 -41
c28 -8 11 -27 -75 -85 -89 -60 -143 -75 -196 -57 -17 6 -31 15 -31 19 0 8 106
72 192 118 21 10 35 22 31 25 -3 4 10 2 28 -4 19 -6 42 -13 51 -16z m3614
-110 c7 -79 6 -136 -4 -213 -13 -106 -12 -191 2 -222 12 -27 -16 -23 -43 6
-22 24 -22 24 -15 257 6 190 10 238 23 256 9 12 19 23 22 23 3 0 10 -48 15
-107z m1114 79 c0 -5 11 -15 25 -22 19 -10 23 -19 19 -37 -4 -13 -1 -30 5 -37
9 -11 9 -25 0 -60 -14 -55 -26 -65 -45 -38 -8 11 -36 47 -64 79 -27 32 -50 63
-50 69 0 5 19 20 43 31 45 23 67 28 67 15z m-3785 -128 c39 -35 39 -35 7 -17
-35 19 -71 53 -56 53 5 0 27 -16 49 -36z m681 -71 c-3 -13 0 -23 6 -23 7 0 8
-15 4 -42 -4 -24 -8 -54 -10 -67 -4 -29 -47 -64 -60 -50 -13 12 -29 12 -21 -1
3 -5 2 -10 -3 -10 -6 0 -12 7 -16 15 -4 10 1 15 14 15 24 0 25 8 4 31 -14 16
-14 18 4 23 33 11 47 60 36 125 -7 45 -6 60 6 74 14 17 16 15 27 -24 7 -24 11
-53 9 -66z m-56 -62 c-9 -21 -13 -22 -21 -10 -8 10 -9 8 -4 -8 5 -16 2 -23 -8
-23 -19 0 -31 30 -17 44 5 5 10 18 10 28 0 10 4 26 9 36 5 9 13 26 17 37 5 15
9 8 16 -30 6 -34 6 -57 -2 -74z m-250 69 c0 -14 27 -12 34 3 3 6 3 1 0 -12 -5
-19 -3 -23 10 -18 18 7 60 -8 90 -32 11 -9 16 -10 12 -4 -5 9 -2 11 8 7 19 -7
21 -24 4 -24 -7 -1 -2 -7 12 -15 14 -8 22 -14 19 -15 -20 -1 -101 36 -151 68
-55 35 -70 52 -48 52 6 0 10 -4 10 -10z m3396 -27 c26 -22 34 -35 34 -60 0
-18 -4 -33 -9 -33 -4 0 -6 -11 -4 -25 3 -13 8 -24 12 -23 48 6 69 -17 26 -28
-20 -5 -31 1 -60 32 -19 22 -35 48 -36 59 -4 42 -5 105 -1 105 1 0 19 -12 38
-27z m-1128 -316 c12 -11 22 -26 22 -34 0 -7 4 -13 9 -13 5 0 11 -13 13 -30 3
-16 3 -30 1 -30 -2 0 -24 19 -48 41 -34 31 -45 49 -45 71 0 32 7 31 48 -5z
m1012 -71 c11 -36 33 -91 49 -123 16 -32 31 -67 34 -78 18 -68 18 -70 -7 -30
-14 22 -31 52 -38 67 -7 15 -21 28 -33 30 -17 3 -21 14 -32 93 -6 50 -12 101
-12 115 0 21 1 22 9 8 6 -9 19 -46 30 -82z m-163 -588 c-3 -8 -6 -5 -6 6 -1
11 2 17 5 13 3 -3 4 -12 1 -19z"/>
<path d="M525 3010 c3 -5 8 -10 11 -10 2 0 4 5 4 10 0 6 -5 10 -11 10 -5 0 -7
-4 -4 -10z"/>
<path d="M550 2954 c0 -10 31 -36 37 -31 3 3 -2 13 -10 22 -16 15 -27 19 -27
9z"/>
<path d="M590 2900 c0 -5 5 -10 11 -10 5 0 7 5 4 10 -3 6 -8 10 -11 10 -2 0
-4 -4 -4 -10z"/>
<path d="M685 2760 c3 -5 8 -10 11 -10 2 0 4 5 4 10 0 6 -5 10 -11 10 -5 0 -7
-4 -4 -10z"/>
<path d="M1195 2440 c3 -5 8 -10 11 -10 2 0 4 5 4 10 0 6 -5 10 -11 10 -5 0
-7 -4 -4 -10z"/>
<path d="M1500 2486 c0 -2 8 -10 18 -17 15 -13 16 -12 3 4 -13 16 -21 21 -21
13z"/>
<path d="M1620 2475 c16 -25 72 -71 64 -53 -3 7 -22 26 -41 43 -24 20 -32 23
-23 10z"/>
<path d="M1720 2385 c13 -14 26 -25 28 -25 3 0 -5 11 -18 25 -13 14 -26 25
-28 25 -3 0 5 -11 18 -25z"/>
<path d="M5415 2078 c11 -6 28 -18 38 -26 9 -8 17 -11 17 -6 0 10 -52 44 -67
44 -4 0 1 -6 12 -12z"/>
<path d="M5531 1915 c0 -5 8 -26 19 -45 11 -19 19 -30 19 -25 0 6 -8 26 -19
45 -11 19 -19 31 -19 25z"/>
<path d="M1321 1694 c0 -11 3 -14 6 -6 3 7 2 16 -1 19 -3 4 -6 -2 -5 -13z"/>
<path d="M2060 1610 c33 -26 52 -25 21 0 -13 11 -28 20 -35 20 -6 0 0 -9 14
-20z"/>
<path d="M2115 1580 c3 -5 8 -10 11 -10 2 0 4 5 4 10 0 6 -5 10 -11 10 -5 0
-7 -4 -4 -10z"/>
<path d="M2140 1561 c0 -5 7 -12 16 -15 24 -9 28 -7 14 9 -14 17 -30 20 -30 6z"/>
<path d="M1515 1521 c-4 -8 2 -23 18 -38 32 -33 43 -15 13 22 -17 21 -25 25
-31 16z m30 -27 c9 -15 12 -23 6 -20 -11 7 -35 46 -28 46 3 0 12 -12 22 -26z"/>
<path d="M5080 3932 c0 -5 9 -17 21 -28 30 -27 71 -114 110 -231 18 -57 37
-103 42 -103 5 0 6 8 2 18 -4 9 -20 53 -35 97 -15 44 -42 114 -59 155 -17 41
-31 81 -31 88 0 6 -11 12 -25 12 -14 0 -25 -4 -25 -8z"/>
<path d="M5387 3864 c43 -41 76 -76 73 -77 -8 -3 25 -42 38 -45 16 -3 10 8
-32 63 -61 78 -119 135 -138 135 -14 0 2 -21 59 -76z m94 -91 c13 -16 12 -17
-3 -4 -10 7 -18 15 -18 17 0 8 8 3 21 -13z"/>
<path d="M5873 3910 c79 -100 134 -199 128 -229 -1 -8 2 -10 10 -5 9 5 10 2 6
-9 -8 -21 12 -79 25 -71 32 20 -95 262 -173 329 -20 17 -20 15 4 -15z"/>
<path d="M5972 3908 c14 -18 49 -67 78 -108 29 -41 71 -96 92 -121 21 -25 38
-51 38 -58 0 -7 4 -10 9 -7 12 7 21 -17 22 -57 0 -27 2 -29 8 -12 5 11 7 23 4
28 -2 4 4 10 14 14 10 4 24 14 31 22 11 14 12 14 10 -4 -2 -10 8 -30 21 -43
30 -30 19 -43 -12 -14 -13 12 -27 22 -31 22 -5 0 2 -8 14 -18 16 -13 20 -24
15 -44 -6 -25 -8 -25 -33 -12 -40 21 -78 17 -128 -12 -25 -15 -48 -24 -51 -20
-10 10 19 55 39 62 11 3 17 8 14 11 -3 3 -17 -2 -32 -11 -14 -10 -28 -15 -32
-12 -7 8 -5 10 48 40 25 14 41 26 35 26 -5 0 -25 -9 -44 -21 -18 -11 -34 -19
-36 -17 -1 2 -8 12 -14 23 -11 18 -12 18 -6 -5 4 -14 9 -88 12 -165 9 -225
-12 -314 -123 -537 -36 -71 -65 -128 -67 -128 -1 0 -3 37 -3 83 -1 45 -11 132
-22 192 -12 61 -24 130 -27 155 -7 52 -37 166 -67 260 -45 141 -195 417 -215
396 -4 -4 34 -65 48 -76 17 -13 70 -128 82 -176 l14 -55 -23 22 c-12 11 -25
33 -29 47 -7 29 -70 138 -85 147 -5 3 2 -15 16 -40 14 -24 23 -49 19 -55 -4
-6 -1 -9 6 -8 7 2 14 -8 15 -23 2 -15 19 -59 39 -98 19 -40 33 -77 29 -83 -5
-7 -2 -8 6 -3 8 5 11 3 8 -6 -3 -8 14 -52 38 -98 50 -96 52 -106 24 -91 -11 6
-26 8 -32 4 -6 -4 -8 -3 -5 3 4 6 0 14 -9 17 -8 3 -13 2 -10 -2 2 -4 -29 -8
-70 -10 -41 -2 -89 -8 -107 -13 -40 -11 -80 -12 -73 0 3 4 -6 6 -20 3 -14 -2
-22 -7 -19 -11 6 -6 11 -7 36 -10 8 -1 8 -6 -1 -16 -11 -13 -10 -14 6 -9 18 7
18 6 -1 -17 -31 -37 -47 -69 -34 -69 5 0 7 -5 3 -12 -8 -13 7 -5 52 29 17 13
33 23 36 23 4 0 9 -27 13 -59 5 -48 11 -60 27 -64 13 -4 19 -11 15 -21 -3 -8
-1 -18 5 -22 6 -4 9 -3 5 2 -3 5 1 18 9 29 8 10 14 15 14 10 0 -5 6 0 14 10
13 18 14 18 20 -3 10 -29 22 -28 30 4 5 20 12 25 26 21 11 -3 24 1 31 9 6 8
16 11 21 7 7 -4 8 10 4 41 -7 46 1 59 22 34 6 -7 12 -26 14 -43 l3 -30 17 35
c20 41 22 34 19 -75 -1 -46 1 -65 7 -56 7 9 13 -6 20 -50 22 -130 24 -163 8
-229 -8 -35 -14 -66 -12 -68 4 -3 88 150 129 233 42 86 48 87 45 8 -2 -40 -6
-73 -9 -73 -4 0 -7 -12 -7 -27 0 -16 -5 -54 -11 -86 -17 -80 -7 -84 15 -7 l17
62 16 -28 c8 -16 20 -43 27 -61 11 -30 9 -34 -35 -77 -25 -25 -50 -45 -56 -46
-5 0 -10 -3 -10 -7 0 -5 -4 -15 -9 -23 -5 -8 57 50 138 130 80 80 146 147 146
150 0 2 -34 -29 -75 -70 l-74 -74 -12 30 c-16 43 -22 98 -15 138 6 32 10 35
30 30 63 -15 164 47 188 118 6 17 15 25 21 21 7 -3 9 -3 5 2 -4 4 6 30 22 59
34 61 70 179 70 228 0 48 -11 99 -20 93 -3 -2 -14 11 -23 30 -17 35 -31 43
-42 25 -3 -5 -17 -9 -30 -8 -13 1 -21 6 -19 10 3 4 -1 8 -9 8 -8 0 -20 7 -27
15 -10 13 -9 15 9 15 11 0 21 5 21 10 0 6 -5 10 -11 10 -6 0 -22 9 -36 20
l-26 20 29 0 c33 0 94 -34 95 -52 0 -7 12 -23 28 -35 l27 -21 -8 76 c-5 42
-15 86 -23 99 -30 45 -20 74 41 121 63 49 62 49 105 -25 30 -50 40 -53 15 -4
-9 16 -11 33 -6 41 4 7 6 20 2 28 -3 10 -1 13 6 8 7 -4 12 -3 12 2 0 5 -11 15
-25 22 -16 9 -21 16 -14 21 8 5 8 8 0 13 -6 4 -16 4 -23 0 -6 -4 -8 -3 -4 4 3
5 0 12 -6 15 -7 2 -1 4 14 3 14 0 24 -4 21 -8 -2 -5 1 -8 7 -8 7 0 10 -7 7
-14 -4 -10 -1 -13 7 -10 16 6 24 -5 65 -79 62 -113 87 -230 68 -322 -5 -22 -6
-37 -3 -34 4 3 20 66 36 140 31 138 39 280 19 309 -7 11 -9 1 -7 -37 1 -29 -1
-56 -5 -59 -4 -4 -7 8 -7 27 0 19 -4 29 -8 24 -4 -6 -32 16 -68 53 -33 34 -58
64 -56 66 2 3 -10 12 -26 20 -17 9 -36 21 -44 28 -35 33 -63 39 -197 36 l-135
-3 64 -75 c89 -105 95 -111 70 -62 -12 24 -20 46 -18 48 10 9 48 -10 49 -25 0
-10 2 -11 6 -3 7 17 23 15 63 -9 l34 -21 -34 -29 c-19 -16 -38 -29 -42 -29 -5
0 -9 17 -10 38 -1 34 -2 33 -7 -12 l-6 -49 -94 117 -93 116 -70 0 -70 0 24
-32z m160 -128 c39 -50 52 -70 45 -70 -5 0 -75 92 -91 120 -12 21 4 4 46 -50z
m331 -60 c3 -11 3 -20 1 -20 -2 0 -8 9 -14 20 -6 11 -7 20 -2 20 6 0 12 -9 15
-20z m142 -45 c17 -18 25 -38 26 -63 l1 -37 8 30 8 30 0 -30 c1 -16 -3 -48 -7
-70 l-9 -40 -1 38 c0 20 -5 37 -11 37 -5 0 -10 9 -10 20 0 12 -9 38 -20 60
-30 59 -26 65 15 25z m-296 -213 c1 -7 -3 -10 -9 -7 -5 3 -10 18 -9 33 0 24 1
25 9 7 5 -11 9 -26 9 -33z m-194 -72 c-3 -5 -12 -10 -18 -10 -7 0 -6 4 3 10
19 12 23 12 15 0z m-360 -197 c19 -9 35 -21 35 -26 0 -5 -15 0 -32 11 -18 11
-40 22 -48 25 -8 3 -10 6 -3 6 7 1 28 -7 48 -16z m-85 -63 c0 -5 -7 -10 -15
-10 -8 0 -15 5 -15 10 0 6 7 10 15 10 8 0 15 -4 15 -10z m20 -40 c0 -13 -20
-13 -40 0 -12 8 -9 10 13 10 15 0 27 -4 27 -10z m-135 -10 c-3 -5 -11 -10 -16
-10 -6 0 -7 5 -4 10 3 6 11 10 16 10 6 0 7 -4 4 -10z"/>
<path d="M6547 3933 c7 -3 15 -4 19 -3 3 1 24 -18 45 -42 31 -34 39 -48 34
-68 -4 -19 -3 -21 5 -10 11 17 13 73 4 108 -6 20 -12 22 -63 21 -31 -1 -50 -4
-44 -6z"/>
<path d="M6747 3910 c44 -73 66 -123 83 -188 10 -37 19 -58 19 -47 3 63 -59
214 -102 252 -20 18 -20 18 0 -17z"/>
<path d="M5496 3848 c3 -5 10 -6 15 -3 13 9 11 12 -6 12 -8 0 -12 -4 -9 -9z"/>
<path d="M4345 3779 c-4 -11 -4 -23 -1 -26 3 -4 6 -1 6 5 0 7 6 12 14 12 8 0
16 7 20 15 3 10 -1 15 -14 15 -10 0 -22 -9 -25 -21z"/>
<path d="M4310 3730 c-6 -11 -8 -20 -6 -20 3 0 10 9 16 20 6 11 8 20 6 20 -3
0 -10 -9 -16 -20z"/>
<path d="M5316 3715 c3 -22 11 -69 19 -105 8 -36 16 -82 19 -104 l5 -39 -27
24 c-15 13 -9 4 13 -19 48 -52 54 -42 31 61 -23 100 -67 235 -60 182z"/>
<path d="M5516 3690 c15 -22 32 -40 38 -40 8 0 8 2 0 8 -6 4 -19 22 -29 40
-11 17 -23 32 -27 32 -5 0 4 -18 18 -40z"/>
<path d="M5011 3682 c0 -13 6 -81 15 -150 9 -70 17 -182 17 -249 1 -67 5 -114
9 -105 4 9 7 -14 7 -52 1 -73 9 -88 11 -21 3 81 -55 648 -59 577z"/>
<path d="M6848 3522 c-3 -45 -10 -88 -16 -95 -5 -7 -12 -32 -16 -56 -9 -58
-70 -219 -112 -296 -19 -35 -53 -83 -74 -108 -22 -25 -40 -50 -40 -56 0 -18
-31 -61 -40 -56 -4 3 -29 -20 -54 -49 -31 -37 -43 -57 -35 -62 7 -4 10 -3 7 2
-4 5 14 32 39 59 24 28 43 46 41 40 -2 -5 -13 -30 -25 -55 -24 -52 -40 -150
-25 -150 6 0 21 4 34 9 21 8 28 24 48 113 24 106 40 115 21 12 -6 -32 -11 -67
-11 -77 0 -19 1 -19 20 -2 11 10 17 22 13 28 -3 5 -2 7 3 4 6 -3 23 15 39 41
16 26 32 49 35 52 11 9 60 126 79 191 29 93 50 200 56 288 3 42 10 112 16 156
6 44 9 96 7 115 -2 21 -6 2 -10 -48z"/>
<path d="M4221 3549 c-6 -18 -11 -37 -10 -43 0 -6 7 7 15 28 8 22 12 41 10 43
-2 2 -9 -10 -15 -28z"/>
<path d="M5280 3546 c0 -2 8 -10 18 -17 15 -13 16 -12 3 4 -13 16 -21 21 -21
13z"/>
<path d="M4912 3480 c0 -14 2 -19 5 -12 2 6 2 18 0 25 -3 6 -5 1 -5 -13z"/>
<path d="M4191 3444 c0 -11 3 -14 6 -6 3 7 2 16 -1 19 -3 4 -6 -2 -5 -13z"/>
<path d="M4621 3434 c0 -11 3 -14 6 -6 3 7 2 16 -1 19 -3 4 -6 -2 -5 -13z"/>
<path d="M4901 3434 c0 -11 3 -14 6 -6 3 7 2 16 -1 19 -3 4 -6 -2 -5 -13z"/>
<path d="M5410 3441 c0 -6 4 -13 10 -16 6 -3 7 1 4 9 -7 18 -14 21 -14 7z"/>
<path d="M4891 3394 c0 -11 3 -14 6 -6 3 7 2 16 -1 19 -3 4 -6 -2 -5 -13z"/>
<path d="M5391 3394 c0 -11 3 -14 6 -6 3 7 2 16 -1 19 -3 4 -6 -2 -5 -13z"/>
<path d="M4881 3354 c0 -11 3 -14 6 -6 3 7 2 16 -1 19 -3 4 -6 -2 -5 -13z"/>
<path d="M5425 3363 c-78 -10 -214 -63 -163 -63 13 0 18 -11 21 -42 3 -42 4
-42 5 9 2 48 4 52 33 62 18 6 45 11 60 11 15 0 39 4 53 10 22 8 31 5 58 -19
43 -37 107 -76 138 -85 14 -4 6 3 -17 16 -24 13 -64 38 -90 57 -43 30 -46 35
-28 42 16 6 14 7 -10 7 -16 -1 -43 -3 -60 -5z"/>
<path d="M4871 3314 c0 -11 3 -14 6 -6 3 7 2 16 -1 19 -3 4 -6 -2 -5 -13z"/>
<path d="M4110 3268 c-15 -21 -17 -28 -6 -19 16 13 41 51 33 51 -2 0 -14 -15
-27 -32z"/>
<path d="M5022 3285 c0 -11 4 -31 8 -45 6 -20 8 -21 8 -5 0 11 -4 31 -8 45 -6
20 -8 21 -8 5z"/>
<path d="M4392 3220 c0 -14 2 -19 5 -12 2 6 2 18 0 25 -3 6 -5 1 -5 -13z"/>
<path d="M4841 3208 c-1 -10 -16 -24 -36 -32 -51 -21 -43 -25 15 -7 27 8 46
17 41 20 -4 4 -11 13 -14 21 -4 12 -6 12 -6 -2z"/>
<path d="M4039 3183 c-13 -16 -12 -17 4 -4 9 7 17 15 17 17 0 8 -8 3 -21 -13z"/>
<path d="M4355 3187 c-19 -22 -55 -107 -45 -107 11 0 63 97 58 110 -2 4 -7 3
-13 -3z"/>
<path d="M4712 3180 c0 -14 2 -19 5 -12 2 6 2 18 0 25 -3 6 -5 1 -5 -13z"/>
<path d="M6530 3165 c-12 -19 -26 -34 -32 -32 -6 1 -15 -14 -20 -33 -6 -19
-26 -57 -45 -85 -24 -34 -26 -40 -8 -20 26 30 100 138 124 183 19 35 5 26 -19
-13z"/>
<path d="M5273 3150 c0 -25 2 -35 4 -22 2 12 2 32 0 45 -2 12 -4 2 -4 -23z"/>
<path d="M4592 3160 c0 -14 2 -19 5 -12 2 6 2 18 0 25 -3 6 -5 1 -5 -13z"/>
<path d="M6491 3164 c0 -11 3 -14 6 -6 3 7 2 16 -1 19 -3 4 -6 -2 -5 -13z"/>
<path d="M5232 3140 c0 -14 2 -19 5 -12 2 6 2 18 0 25 -3 6 -5 1 -5 -13z"/>
<path d="M4381 3124 c0 -11 3 -14 6 -6 3 7 2 16 -1 19 -3 4 -6 -2 -5 -13z"/>
<path d="M4810 3065 c-7 -36 -10 -68 -8 -70 3 -3 10 25 17 61 6 37 10 68 8 71
-3 2 -10 -26 -17 -62z"/>
<path d="M3945 3078 l-40 -43 43 40 c39 36 47 45 39 45 -2 0 -21 -19 -42 -42z"/>
<path d="M4600 3111 c0 -18 48 -214 60 -245 19 -52 21 -21 1 36 -11 31 -25 90
-32 132 -6 42 -16 79 -20 82 -5 3 -9 0 -9 -5z"/>
<path d="M4857 3037 c3 -4 -3 -18 -14 -30 -15 -19 -16 -20 0 -8 23 18 22 0 -3
-31 l-19 -25 35 -34 34 -33 -11 32 c-9 26 -8 37 5 57 25 38 43 31 51 -17 8
-58 25 -88 47 -88 11 0 18 -7 18 -19 0 -11 5 -23 12 -27 7 -4 8 -3 4 5 -9 14
15 39 32 33 7 -2 21 7 32 20 18 23 18 23 -1 56 -10 18 -15 31 -10 28 5 -3 4 5
-2 19 -18 38 -104 76 -166 73 -27 -1 -47 -6 -44 -11z m187 -93 c3 -8 2 -12 -4
-9 -6 3 -10 10 -10 16 0 14 7 11 14 -7z"/>
<path d="M4246 2973 c-21 -32 -30 -50 -19 -41 18 16 69 98 61 98 -2 0 -21 -26
-42 -57z"/>
<path d="M3840 2963 l-55 -58 58 55 c31 30 57 56 57 57 0 8 -10 -1 -60 -54z"/>
<path d="M6784 2964 c-11 -44 -81 -173 -127 -233 l-41 -55 40 24 c21 13 47 28
56 34 20 12 35 44 48 106 l9 45 -2 -47 c-3 -74 10 -42 23 56 11 87 8 125 -6
70z"/>
<path d="M5228 2917 c-3 -19 -2 -25 4 -19 6 6 8 18 6 28 -3 14 -5 12 -10 -9z"/>
<path d="M5793 2850 c0 -25 2 -35 4 -22 2 12 2 32 0 45 -2 12 -4 2 -4 -23z"/>
<path d="M4596 2845 c-11 -8 -15 -15 -9 -15 6 0 16 7 23 15 16 19 11 19 -14 0z"/>
<path d="M6289 2843 c-13 -16 -12 -17 4 -4 9 7 17 15 17 17 0 8 -8 3 -21 -13z"/>
<path d="M4320 2834 c46 -15 90 -11 90 7 0 6 -7 6 -21 -1 -15 -8 -29 -8 -51
-1 -17 6 -38 11 -47 10 -9 0 4 -7 29 -15z"/>
<path d="M5090 2845 c0 -2 7 -8 15 -15 12 -10 15 -10 15 2 0 8 -7 15 -15 15
-8 0 -15 -1 -15 -2z"/>
<path d="M4450 2825 c14 -8 34 -14 45 -14 11 0 2 6 -20 14 -50 18 -57 18 -25
0z"/>
<path d="M4615 2810 c-3 -5 -1 -10 4 -10 6 0 11 5 11 10 0 6 -2 10 -4 10 -3 0
-8 -4 -11 -10z"/>
<path d="M4720 2770 c11 -22 23 -40 25 -40 3 0 -4 18 -15 40 -11 22 -23 40
-25 40 -3 0 4 -18 15 -40z"/>
<path d="M5783 2755 c0 -22 2 -30 4 -17 2 12 2 30 0 40 -3 9 -5 -1 -4 -23z"/>
<path d="M6756 2738 c-3 -18 -11 -70 -16 -115 -6 -45 -18 -105 -26 -132 -8
-28 -12 -63 -8 -78 3 -17 2 -23 -3 -16 -5 8 -9 -8 -10 -40 -2 -80 -70 -442
-98 -518 -13 -37 -21 -69 -18 -73 8 -7 -17 -127 -30 -143 -6 -9 -6 -13 2 -13
12 0 3 -63 -10 -68 -4 -2 -6 -9 -3 -16 3 -7 -1 -26 -7 -42 -7 -16 -14 -44 -16
-62 -2 -18 -11 -44 -19 -58 -11 -16 -14 -35 -10 -57 4 -23 3 -28 -4 -17 -5 8
-10 32 -10 52 0 20 -3 39 -7 41 -5 3 -7 -16 -7 -41 2 -35 -3 -53 -19 -69 -19
-22 -19 -24 -3 -42 16 -17 16 -18 -10 -15 -14 1 -28 4 -30 7 -8 7 8 67 18 67
5 0 7 3 5 8 -7 11 29 219 48 282 9 30 41 143 70 250 29 107 61 224 72 260 11
36 23 88 27 115 9 69 96 508 103 518 11 18 -123 -56 -143 -79 -22 -25 -35 -93
-30 -154 2 -19 -3 -44 -11 -55 -15 -23 -17 -54 -3 -75 6 -10 8 -2 4 25 -4 25
-2 35 3 27 7 -8 15 14 27 70 10 46 19 88 21 93 1 6 4 -9 6 -32 2 -23 1 -39 -3
-37 -5 3 -8 0 -8 -5 0 -6 5 -11 11 -11 35 0 -75 -560 -175 -890 -79 -262 -97
-334 -92 -356 4 -13 2 -24 -3 -24 -10 0 -25 -68 -27 -130 -1 -25 -16 -94 -34
-155 -17 -60 -36 -130 -41 -155 -5 -25 -18 -72 -29 -105 -11 -33 -22 -76 -25
-95 -7 -46 -31 -127 -67 -228 -16 -46 -27 -86 -24 -89 3 -4 6 2 7 13 0 10 3
14 5 8 3 -6 -13 -60 -34 -120 -21 -60 -42 -121 -46 -136 l-6 -28 490 0 490 0
0 873 c-1 854 -1 872 -19 850 -11 -13 -22 -23 -26 -23 -3 0 -18 -14 -32 -30
-13 -17 -33 -30 -44 -30 -11 0 -19 -7 -19 -16 0 -9 -13 -21 -30 -27 -16 -6
-30 -16 -30 -21 0 -15 -33 -35 -57 -36 -14 0 -23 -6 -23 -15 0 -8 -16 -21 -35
-29 -19 -8 -45 -24 -57 -36 -12 -11 -32 -23 -43 -26 -13 -3 -28 -22 -38 -47
-10 -23 -14 -31 -11 -17 4 14 7 40 7 58 0 18 3 28 6 23 3 -5 7 15 8 43 1 29
13 104 27 167 75 338 113 553 156 879 10 80 22 164 26 188 3 23 4 42 1 42 -3
0 -9 -15 -11 -32z m-399 -1480 c-3 -8 -6 -5 -6 6 -1 11 2 17 5 13 3 -3 4 -12
1 -19z m123 -3 c0 -8 -4 -15 -9 -15 -13 0 -22 16 -14 24 11 11 23 6 23 -9z
m-19 -66 c-5 -13 -10 -19 -10 -12 -1 15 10 45 15 40 3 -2 0 -15 -5 -28z m-34
-31 c-3 -7 -5 -2 -5 12 0 14 2 19 5 13 2 -7 2 -19 0 -25z m19 -28 c0 -12 -4
-16 -9 -11 -5 5 -6 14 -3 20 10 15 12 14 12 -9z"/>
<path d="M6372 2664 c-34 -41 -58 -74 -53 -74 5 0 19 12 30 26 12 15 21 24 21
20 0 -8 65 65 65 73 0 3 4 12 8 19 5 6 5 12 0 11 -4 0 -36 -34 -71 -75z"/>
<path d="M4640 2716 c0 -2 13 -6 29 -8 17 -2 28 -1 25 4 -5 8 -54 12 -54 4z"/>
<path d="M3470 2679 c-22 -18 -22 -19 -3 -10 12 6 25 16 28 21 9 15 3 12 -25
-11z"/>
<path d="M5772 2680 c0 -14 2 -19 5 -12 2 6 2 18 0 25 -3 6 -5 1 -5 -13z"/>
<path d="M6419 2663 c-13 -16 -12 -17 4 -4 9 7 17 15 17 17 0 8 -8 3 -21 -13z"/>
<path d="M3285 2635 c-33 -15 -33 -15 10 -20 21 -3 25 -1 15 5 -12 7 -10 11
10 19 14 5 18 10 10 10 -8 0 -28 -6 -45 -14z"/>
<path d="M6390 2625 c-7 -9 -8 -15 -2 -15 5 0 12 7 16 15 3 8 4 15 2 15 -2 0
-9 -7 -16 -15z"/>
<path d="M6508 2628 c-16 -5 -28 -16 -28 -25 0 -11 6 -10 30 7 25 17 39 33 28
29 -2 0 -15 -5 -30 -11z"/>
<path d="M5410 2604 c-36 -8 -76 -16 -88 -19 l-24 -6 26 -20 c47 -37 80 -43
123 -21 46 24 77 57 68 71 -8 13 -21 12 -105 -5z"/>
<path d="M6349 2564 c-5 -15 -12 -31 -15 -35 -3 -5 -1 -9 5 -9 9 0 41 50 41
65 0 16 -22 1 -31 -21z"/>
<path d="M6499 2567 c-10 -7 -19 -36 -23 -77 -4 -36 -9 -83 -12 -105 -3 -26 6
-7 24 51 48 151 49 160 11 131z"/>
<path d="M6279 2553 c-13 -16 -12 -17 4 -4 9 7 17 15 17 17 0 8 -8 3 -21 -13z"/>
<path d="M6175 2460 c-17 -19 -17 -19 9 -7 14 7 26 15 26 20 0 13 -17 7 -35
-13z"/>
<path d="M6310 2459 c-9 -15 -18 -19 -38 -15 -15 3 -34 2 -42 -4 -11 -7 -4
-10 27 -10 23 0 50 -3 60 -6 14 -6 16 -4 6 6 -8 9 -9 19 -2 32 5 10 7 18 5 18
-3 0 -10 -9 -16 -21z"/>
<path d="M6401 2359 c70 -72 83 -104 87 -214 5 -127 -8 -214 -59 -388 -23 -76
-39 -141 -36 -143 2 -2 11 19 20 48 70 236 78 271 87 373 5 61 12 124 15 140
4 24 3 26 -4 10 -9 -19 -10 -18 -11 5 -2 45 -27 98 -70 149 -23 28 -46 51 -51
51 -4 0 5 -14 22 -31z"/>
<path d="M551 2357 c2 -1 13 -9 24 -17 19 -14 19 -14 6 3 -7 9 -18 17 -24 17
-6 0 -8 -1 -6 -3z"/>
<path d="M6527 2279 c-6 -42 -3 -46 10 -16 6 13 8 30 3 36 -5 8 -9 1 -13 -20z"/>
<path d="M6326 1424 c-33 -95 -57 -177 -53 -181 4 -3 7 0 7 9 0 8 12 43 26 79
29 71 87 259 82 264 -2 2 -30 -75 -62 -171z"/>
<path d="M178 1503 c6 -2 18 -2 25 0 6 3 1 5 -13 5 -14 0 -19 -2 -12 -5z"/>
<path d="M250 1490 c12 -8 12 -10 1 -10 -8 0 -12 -2 -9 -5 3 -3 13 -3 22 1 19
7 11 24 -12 24 -15 0 -15 -2 -2 -10z"/>
<path d="M5831 1412 c-2 -40 19 -72 157 -245 30 -37 56 -67 59 -67 6 0 1 8
-51 73 -39 49 -47 82 -33 147 7 34 6 33 -13 -9 -11 -24 -22 -42 -24 -40 -18
18 -80 118 -86 138 -8 25 -8 25 -9 3z"/>
<path d="M210 1390 c0 -5 5 -10 11 -10 5 0 7 5 4 10 -3 6 -8 10 -11 10 -2 0
-4 -4 -4 -10z"/>
<path d="M210 1360 c0 -5 5 -10 11 -10 5 0 7 5 4 10 -3 6 -8 10 -11 10 -2 0
-4 -4 -4 -10z"/>
<path d="M4166 1161 c-20 -21 -24 -31 -15 -36 7 -5 10 -4 5 3 -3 6 6 20 20 31
15 12 25 23 22 26 -2 3 -17 -8 -32 -24z"/>
<path d="M5203 830 c-12 -28 -19 -50 -17 -50 7 0 46 91 42 96 -2 2 -14 -19
-25 -46z"/>
<path d="M3565 690 c-3 -6 1 -7 9 -4 18 7 21 14 7 14 -6 0 -13 -4 -16 -10z"/>
<path d="M316 671 c-3 -4 6 -8 20 -9 13 -1 24 0 24 2 0 7 -40 14 -44 7z"/>
<path d="M404 611 c0 -12 5 -17 15 -13 9 3 12 1 7 -6 -5 -8 -2 -10 9 -6 13 5
12 9 -6 25 -27 23 -25 23 -25 0z"/>
<path d="M3340 568 c-87 -55 -425 -228 -447 -228 -10 0 -83 -32 -163 -72 -134
-66 -151 -78 -232 -159 -49 -48 -88 -92 -88 -98 0 -8 138 -11 465 -11 256 0
465 3 465 8 0 4 -7 45 -15 92 -20 115 -19 203 5 307 23 101 45 161 67 186 23
25 15 22 -57 -25z"/>
<path d="M500 520 c-9 -6 -10 -10 -3 -10 6 0 15 5 18 10 8 12 4 12 -15 0z"/>
<path d="M645 411 c-3 -5 -1 -12 5 -16 6 -4 7 -12 3 -18 -4 -7 1 -6 10 2 13
10 15 17 6 27 -14 17 -16 17 -24 5z"/>
<path d="M756 283 c-6 -14 -5 -15 5 -6 7 7 10 15 7 18 -3 3 -9 -2 -12 -12z"/>
<path d="M5950 9 c0 -5 5 -7 10 -4 6 3 10 8 10 11 0 2 -4 4 -10 4 -5 0 -10 -5
-10 -11z"/>
</g>
</svg>
